<?xml version="1.0" encoding="UTF-8"?>
<svg id="Layer_2" data-name="Layer 2" xmlns="http://www.w3.org/2000/svg" viewBox="0 0 2922.46 506.14">
  <defs>
    <style>
      .cls-1 {
        fill: none;
      }

      .cls-2 {
        fill: #8516cb;
      }
    </style>
  </defs>
  <g id="Layer_1-2" data-name="Layer 1">
    <g>
      <g>
        <path class="cls-2" d="M395.03,395.03c-15.71,63.8-73.31,111.11-141.96,111.11s-126.25-47.31-141.96-111.11c11.24,2.77,22.99,4.24,35.09,4.24,42.18,0,80.18-17.86,106.87-46.43,26.69,28.57,64.69,46.43,106.87,46.43,12.1,0,23.85-1.47,35.09-4.24Z"/>
        <path class="cls-2" d="M106.87,359.94c0,12.1,1.47,23.85,4.24,35.09C47.31,379.31,0,321.72,0,253.07S47.31,126.82,111.11,111.11c-2.77,11.24-4.24,22.99-4.24,35.09,0,42.18,17.86,80.18,46.43,106.87-28.57,26.69-46.43,64.69-46.43,106.87Z"/>
        <path class="cls-2" d="M146.2,412.53c-12.38,0-24.71-1.43-36.66-4.24h-8.82l-2.49-10.09c-3.07-12.45-4.62-25.33-4.62-38.26,0-22.48,4.59-44.23,13.64-64.62,8.74-19.7,21.19-37.17,37-51.94l9.05-8.45,9.05,8.45c16.58,15.48,36.91,26.51,58.8,31.9l7.79,1.92,1.92,7.79c5.39,21.89,16.42,42.22,31.9,58.8l8.45,9.05-8.45,9.05c-14.77,15.81-32.24,28.26-51.94,37-20.4,9.05-42.14,13.64-64.62,13.64ZM122.28,383.86c7.86,1.43,15.87,2.15,23.92,2.15,33.26,0,64.35-11.97,88.74-33.93-12.52-15.8-21.97-33.87-27.75-53.13-19.25-5.78-37.32-15.23-53.13-27.75-21.96,24.39-33.93,55.48-33.93,88.74,0,8.05.72,16.06,2.15,23.92Z"/>
        <path class="cls-2" d="M153.3,271.21l-9.05-8.45c-15.81-14.77-28.26-32.24-37-51.94-9.05-20.4-13.64-42.14-13.64-64.62,0-12.94,1.56-25.81,4.63-38.26l1.92-7.78,7.78-1.92c12.45-3.07,25.32-4.63,38.26-4.63,22.48,0,44.23,4.59,64.62,13.64,19.7,8.74,37.17,21.19,51.94,37l8.45,9.05-8.45,9.05c-15.12,16.19-26,35.97-31.52,57.27v8.74l-10.09,2.49c-21.89,5.39-42.22,16.42-58.8,31.9l-9.05,8.45ZM122.28,122.28c-1.43,7.86-2.15,15.87-2.15,23.92,0,33.26,11.97,64.35,33.93,88.74,15.8-12.52,33.87-21.97,53.12-27.75,5.78-19.25,15.23-37.32,27.75-53.13-24.39-21.96-55.48-33.93-88.74-33.93-8.05,0-16.06.72-23.92,2.15Z"/>
        <path class="cls-2" d="M395.03,111.11c-11.24-2.77-22.99-4.24-35.09-4.24-42.18,0-80.18,17.86-106.87,46.43-26.69-28.57-64.69-46.43-106.87-46.43-12.1,0-23.85,1.47-35.09,4.24C126.82,47.31,184.42,0,253.07,0s126.25,47.31,141.96,111.11Z"/>
        <path class="cls-1" d="M213.74,253.07c0,12.1,1.47,23.85,4.24,35.09-24.6-6.06-46.75-18.34-64.68-35.09,17.93-16.74,40.08-29.03,64.68-35.09-2.77,11.24-4.24,22.99-4.24,35.09Z"/>
        <path class="cls-2" d="M153.3,271.21l-9.05-8.45c-15.81-14.77-28.26-32.24-37-51.94-9.05-20.4-13.64-42.14-13.64-64.62,0-12.94,1.56-25.81,4.63-38.26l1.92-7.78,7.78-1.92c12.45-3.07,25.32-4.63,38.26-4.63,22.48,0,44.23,4.59,64.62,13.64,19.7,8.74,37.17,21.19,51.94,37l8.45,9.05-8.45,9.05c-15.12,16.19-26,35.97-31.52,57.27v8.74l-10.09,2.49c-21.89,5.39-42.22,16.42-58.8,31.9l-9.05,8.45ZM122.28,122.28c-1.43,7.86-2.15,15.87-2.15,23.92,0,33.26,11.97,64.35,33.93,88.74,15.8-12.52,33.87-21.97,53.12-27.75,5.78-19.25,15.23-37.32,27.75-53.13-24.39-21.96-55.48-33.93-88.74-33.93-8.05,0-16.06.72-23.92,2.15Z"/>
        <path class="cls-2" d="M506.14,253.07c0,68.65-47.31,126.24-111.11,141.96,2.77-11.24,4.24-22.99,4.24-35.09,0-42.18-17.86-80.18-46.43-106.87,28.57-26.69,46.43-64.69,46.43-106.87,0-12.1-1.47-23.85-4.24-35.09,63.8,15.71,111.11,73.31,111.11,141.96Z"/>
        <path class="cls-2" d="M352.83,271.21l-9.05-8.45c-16.58-15.48-36.91-26.51-58.8-31.9l-10.09-2.48v-8.75c-5.52-21.31-16.4-41.08-31.52-57.27l-8.45-9.05,8.45-9.05c14.77-15.81,32.24-28.26,51.94-37,20.4-9.05,42.14-13.64,64.62-13.64,12.94,0,25.81,1.56,38.26,4.63l7.78,1.92,1.92,7.78c3.07,12.45,4.63,25.32,4.63,38.26,0,22.48-4.59,44.23-13.64,64.62-8.74,19.7-21.19,37.17-37,51.94l-9.05,8.45ZM298.95,207.19c19.25,5.78,37.32,15.23,53.12,27.75,21.96-24.39,33.93-55.48,33.93-88.74,0-8.05-.72-16.06-2.15-23.92-7.86-1.43-15.87-2.15-23.92-2.15-33.26,0-64.35,11.97-88.74,33.93,12.52,15.81,21.97,33.87,27.75,53.13Z"/>
        <path class="cls-2" d="M359.94,412.53c-22.48,0-44.23-4.59-64.62-13.64-19.7-8.74-37.17-21.19-51.94-37l-8.45-9.05,8.45-9.05c15.48-16.58,26.51-36.91,31.9-58.8l1.92-7.79,7.79-1.92c21.89-5.39,42.22-16.42,58.8-31.9l9.05-8.45,9.05,8.45c15.81,14.77,28.26,32.24,37,51.94,9.05,20.4,13.64,42.14,13.64,64.62,0,12.93-1.56,25.8-4.62,38.26l-2.48,10.09h-8.82c-11.95,2.81-24.28,4.24-36.66,4.24ZM271.2,352.07c24.39,21.96,55.48,33.93,88.74,33.93,8.05,0,16.07-.72,23.92-2.15,1.43-7.86,2.15-15.87,2.15-23.92,0-33.26-11.97-64.35-33.93-88.74-15.8,12.52-33.87,21.97-53.13,27.75-5.78,19.25-15.23,37.32-27.75,53.13Z"/>
        <path class="cls-1" d="M288.16,217.98c-11.24-2.77-22.99-4.24-35.09-4.24s-23.85,1.47-35.09,4.24c6.06-24.6,18.34-46.74,35.09-64.67,16.74,17.93,29.03,40.08,35.09,64.67Z"/>
        <path class="cls-2" d="M292.4,253.07c0,12.1-1.47,23.85-4.24,35.09-11.24,2.77-22.99,4.24-35.09,4.24s-23.85-1.47-35.09-4.24c-2.77-11.24-4.24-22.99-4.24-35.09s1.47-23.85,4.24-35.09h0c11.24-2.77,22.99-4.24,35.09-4.24s23.85,1.47,35.09,4.24h0c2.77,11.24,4.24,22.99,4.24,35.09Z"/>
        <path class="cls-1" d="M288.16,288.16c-6.06,24.6-18.34,46.75-35.09,64.68-16.74-17.93-29.03-40.08-35.09-64.68,11.24,2.77,22.99,4.24,35.09,4.24s23.85-1.47,35.09-4.24Z"/>
        <path class="cls-1" d="M288.16,288.16c2.77-11.24,4.24-22.99,4.24-35.09s-1.47-23.85-4.24-35.09c24.6,6.06,46.75,18.34,64.68,35.09-17.93,16.74-40.08,29.03-64.68,35.09Z"/>
      </g>
      <g>
        <path class="cls-2" d="M752.55,140.02c-17.54,0-33.93,2.44-49.18,7.31-15.25,4.87-28.48,12.15-39.7,21.83-11.22,9.68-20.07,21.69-26.55,36.04-6.48,14.35-9.72,31.06-9.72,50.14s3,35.39,9.01,49.32c6,13.93,14.53,25.47,25.59,34.59,11.06,9.13,24.37,15.89,39.93,20.28,15.56,4.4,32.9,6.59,52.01,6.59,5.21,0,10.74-.24,16.59-.72,5.85-.48,11.73-1.16,17.65-2.06,5.93-.89,11.69-1.92,17.3-3.09,5.61-1.16,10.62-2.44,15.05-3.81v29.65c-9.21,3.16-19.9,5.59-32.07,7.31-12.17,1.71-24.66,2.57-37.46,2.57-26.07,0-49.16-3.19-69.29-9.58-20.13-6.38-37.03-15.55-50.68-27.49-13.66-11.94-24-26.53-31.02-43.76-7.02-17.23-10.53-36.76-10.53-58.58s3.71-41.11,11.12-59.1c7.41-17.98,18.1-33.43,32.07-46.33,13.97-12.9,30.9-22.96,50.8-30.17,19.9-7.21,42.26-10.81,67.07-10.81,6.55,0,13.03.24,19.43.72,6.4.48,12.52,1.17,18.38,2.06,5.85.89,11.27,1.96,16.27,3.19,4.99,1.24,9.28,2.54,12.88,3.91v29.65c-9.48-2.74-19.83-5.05-31.05-6.9-11.22-1.85-22.52-2.78-33.89-2.78Z"/>
        <path class="cls-2" d="M996.93,273.04v-.82c12.48-1.92,23.84-4.94,34.06-9.06,10.22-4.12,19-9.4,26.34-15.86,7.33-6.45,13.03-14.07,17.09-22.86,4.06-8.78,6.09-18.74,6.09-29.86,0-18.81-5.77-34.49-17.31-47.05-11.54-12.56-28.22-21.45-50.04-26.67-7.95-1.92-16.72-3.33-26.31-4.22-9.59-.89-21.24-1.34-34.96-1.34h-81.14v275.52h38.16v-114.08h46.12l96.45,114.08h38.16l-92.7-117.79ZM946.6,246.48h-37.69v-100.9h43.31c12.02,0,21.92.34,29.73,1.03,7.8.69,14.51,1.79,20.13,3.29,11.86,3.16,21.15,8.34,27.86,15.55,6.71,7.21,10.14,16.71,10.3,28.52,0,12.63-3.59,22.86-10.77,30.68-7.18,7.82-17.4,13.52-30.67,17.09-6.55,1.79-13.97,3.02-22.24,3.71-8.27.69-18.26,1.03-29.96,1.03Z"/>
        <polygon class="cls-2" points="1166.08 360.56 1326.67 360.56 1326.67 390.83 1127.92 390.83 1127.92 115.31 1318.01 115.31 1318.01 145.58 1166.08 145.58 1166.08 234.54 1301.15 234.54 1301.15 264.81 1166.08 264.81 1166.08 360.56"/>
        <path class="cls-2" d="M1625.02,207.25c-4.45-13.8-11.16-26.22-20.13-37.27-8.98-11.05-20.29-20.62-33.94-28.73-13.66-8.1-29.61-14.41-47.87-18.94-10.46-2.61-21.77-4.43-33.94-5.46-12.17-1.03-25.36-1.54-39.56-1.54h-71.63v275.52h70.93c14.2,0,27.39-.51,39.56-1.54s23.49-2.85,33.94-5.46c18.26-4.53,34.22-10.91,47.87-19.15,13.65-8.24,25.05-18.02,34.18-29.34,9.13-11.33,15.96-24.06,20.48-38.2,4.52-14.14,6.79-29.24,6.79-45.3s-2.22-30.78-6.67-44.58ZM1573.84,317.73c-13.29,17.16-32.34,29.17-57.17,36.04-9.49,2.61-20.08,4.4-31.79,5.35-11.71.96-24.91,1.44-39.62,1.44h-29.18v-214.98h29.18c14.71,0,27.91.48,39.62,1.44,11.7.96,22.3,2.75,31.79,5.35,24.83,6.87,43.89,18.53,57.17,35.01,13.28,16.47,19.93,37.96,19.93,64.45s-6.64,48.74-19.93,65.89Z"/>
        <path class="cls-2" d="M1797.07,115.31h-33.01l-127.58,275.52h40.97l37.41-82.99h130.96l37.41,82.99h41.44l-127.58-275.52ZM1728.48,277.57l11.71-25.95c12.71-28.03,26.06-59.2,40.03-93.49h.94c13.32,33.81,26.41,64.98,39.26,93.51l11.87,25.92h-103.82Z"/>
        <polygon class="cls-2" points="2089.26 226.92 2175.87 115.31 2218.25 115.31 2111.96 251.01 2223.16 390.83 2180.32 390.83 2088.55 274.07 2087.62 274.07 1995.85 390.83 1952.54 390.83 2064.68 250.19 1959.33 115.31 2001.23 115.31 2088.32 226.92 2089.26 226.92"/>
        <rect class="cls-2" x="2265.05" y="115.31" width="38.16" height="275.52"/>
        <path class="cls-2" d="M2647.34,195.51c-6.66-17.5-16.26-32.57-28.8-45.2-12.54-12.63-27.83-22.48-45.87-29.55-18.04-7.07-38.43-10.6-61.19-10.6s-42.42,3.54-60.38,10.6c-17.96,7.07-33.25,16.92-45.87,29.55-12.62,12.63-22.37,27.7-29.26,45.2-6.89,17.5-10.33,36.76-10.33,57.76s3.33,40.02,9.99,57.45c6.66,17.44,16.25,32.47,28.8,45.1,12.54,12.63,27.87,22.48,45.98,29.55,18.11,7.07,38.63,10.6,61.54,10.6s42.15-3.54,60.03-10.6c17.88-7.07,33.17-16.92,45.87-29.55,12.7-12.63,22.45-27.66,29.26-45.1,6.81-17.43,10.22-36.58,10.22-57.45s-3.33-40.26-9.99-57.76ZM2611.11,302.18c-5.52,14.07-13.13,25.84-22.84,35.32-9.7,9.47-21.07,16.61-34.08,21.42-13.02,4.81-27.1,7.21-42.25,7.21s-29.54-2.4-42.72-7.21c-13.18-4.8-24.61-11.94-34.31-21.42-9.7-9.47-17.36-21.24-22.96-35.32-5.6-14.07-8.4-30.37-8.4-48.91s2.76-34.87,8.28-49.01c5.52-14.14,13.13-25.95,22.84-35.42,9.7-9.47,21.14-16.64,34.32-21.52,13.18-4.87,27.33-7.31,42.48-7.31s29.31,2.44,42.48,7.31c13.18,4.87,24.61,12.05,34.32,21.52,9.7,9.47,17.31,21.28,22.84,35.42,5.52,14.14,8.29,30.48,8.29,49.01s-2.76,34.84-8.29,48.91Z"/>
        <path class="cls-2" d="M2829.76,273.04v-.82c12.48-1.92,23.84-4.94,34.06-9.06,10.22-4.12,19-9.4,26.34-15.86,7.33-6.45,13.03-14.07,17.09-22.86,4.06-8.78,6.09-18.74,6.09-29.86,0-18.81-5.77-34.49-17.3-47.05-11.54-12.56-28.22-21.45-50.04-26.67-7.95-1.92-16.72-3.33-26.31-4.22-9.59-.89-21.24-1.34-34.96-1.34h-81.14v275.52h38.16v-114.08h46.12l96.45,114.08h38.16l-92.7-117.79ZM2779.43,246.48h-37.69v-100.9h43.31c12.02,0,21.92.34,29.73,1.03,7.8.69,14.51,1.79,20.13,3.29,11.86,3.16,21.15,8.34,27.86,15.55,6.71,7.21,10.14,16.71,10.3,28.52,0,12.63-3.59,22.86-10.77,30.68-7.18,7.82-17.4,13.52-30.67,17.09-6.55,1.79-13.97,3.02-22.24,3.71-8.27.69-18.26,1.03-29.96,1.03Z"/>
      </g>
    </g>
  </g>
</svg>